<svg height="480pt" viewBox="0 0 480 480.00002" width="480pt" xmlns="http://www.w3.org/2000/svg"><path d="m376 480c22.082031-.027344 39.972656-17.917969 40-40v-264h32v-144h-32v-24c0-4.417969-3.582031-8-8-8h-256c-2.125-.00390625-4.167969.84375-5.664062 2.351562l-80 80c-1.5 1.496094-2.339844 3.53125-2.335938 5.648438v312h-32v40c.027344 22.082031 17.917969 39.972656 40 40zm56-320h-240v-112h240zm-288-132.6875v52.6875h-52.6875zm-64 68.6875h72c4.417969 0 8-3.582031 8-8v-72h240v16h-224v144h224v264c0 13.253906-10.746094 24-24 24s-24-10.746094-24-24v-32c0-4.417969-3.582031-8-8-8h-264zm-32 344v-24h288v24c.03125 8.683594 2.914062 17.117188 8.207031 24h-272.207031c-13.253906 0-24-10.746094-24-24zm0 0"/><path d="m96 112h16v16h-16zm0 0"/><path d="m128 136h16v16h-16zm0 0"/><path d="m368 384h16v16h-16zm0 0"/><path d="m224 112h32c4.417969 0 8-3.582031 8-8v-32c0-4.417969-3.582031-8-8-8h-40c-4.417969 0-8 3.582031-8 8v72h16zm0-32h24v16h-24zm0 0"/><path d="m288 144h24c1.242188 0 2.464844-.285156 3.574219-.839844 13.582031-8.21875 21.457031-23.320312 20.425781-39.160156 1.03125-15.839844-6.84375-30.941406-20.425781-39.160156-1.109375-.554688-2.332031-.839844-3.574219-.839844h-24c-4.417969 0-8 3.582031-8 8v64c0 4.417969 3.582031 8 8 8zm8-64h13.679688c7.125 5.855469 10.972656 14.800781 10.320312 24 .652344 9.195312-3.1875 18.140625-10.304688 24h-13.695312zm0 0"/><path d="m368 112h16v-16h-16v-16h40v-16h-48c-4.417969 0-8 3.582031-8 8v72h16zm0 0"/><path d="m96 192h64v16h-64zm0 0"/><path d="m176 192h16v16h-16zm0 0"/><path d="m96 224h80v16h-80zm0 0"/><path d="m96 256h16v16h-16zm0 0"/><path d="m128 256h48v16h-48zm0 0"/><path d="m96 288h96v16h-96zm0 0"/><path d="m208 192h32v16h-32zm0 0"/><path d="m192 224h48v16h-48zm0 0"/><path d="m192 256h48v16h-48zm0 0"/><path d="m208 288h32v16h-32zm0 0"/><path d="m384 192h-128v112h128zm-16 96h-96v-80h96zm0 0"/><path d="m32 200v-16h16v-16h-16v-16h-16v16h-16v16h16v16zm0 0"/><path d="m464 280h-16v16h-16v16h16v16h16v-16h16v-16h-16zm0 0"/><path d="m96 384h160v-64h-160zm16-48h128v32h-128zm0 0"/><path d="m272 320h88v16h-88zm0 0"/><path d="m272 352h112v16h-112zm0 0"/></svg>