<?xml version="1.0" encoding="iso-8859-1"?>
<!-- Generator: Adobe Illustrator 19.0.0, SVG Export Plug-In . SVG Version: 6.00 Build 0)  -->
<svg version="1.1" id="Capa_1" xmlns="http://www.w3.org/2000/svg" xmlns:xlink="http://www.w3.org/1999/xlink" x="0px" y="0px"
	 viewBox="0 0 480.249 480.249" style="enable-background:new 0 0 480.249 480.249;" xml:space="preserve">
<polygon style="fill:#2196F3;" points="314.069,432.125 240.085,371.485 342.741,240.125 240.085,108.733 314.069,48.125 
	464.085,240.125 "/>
<path d="M314.069,448.125c-3.698,0.003-7.282-1.275-10.144-3.616l-73.984-60.64c-6.832-5.524-7.932-15.523-2.464-22.4
	l94.944-121.344l-94.944-121.6c-5.361-6.851-4.266-16.729,2.464-22.24l74.144-60.544c3.333-2.728,7.624-3.996,11.904-3.52
	c4.283,0.473,8.194,2.654,10.848,6.048l150.016,192c4.528,5.791,4.528,13.921,0,19.712l-150.016,192
	c-2.654,3.394-6.565,5.575-10.848,6.048C315.352,448.1,314.71,448.132,314.069,448.125z M262.485,369.021l49.216,40.352
	l132.096-169.248L311.541,70.877l-49.056,40.32l92.8,119.104c4.528,5.791,4.528,13.921,0,19.712L262.485,369.021z"/>
<polygon style="fill:#2196F3;" points="90.069,432.125 16.085,371.485 118.741,240.125 16.085,108.733 90.069,48.125 
	240.085,240.125 "/>
<path d="M90.069,448.125c-3.698,0.003-7.282-1.275-10.144-3.616l-73.984-60.64c-6.832-5.524-7.932-15.523-2.464-22.4l94.944-121.344
	l-94.944-121.6c-5.361-6.851-4.266-16.729,2.464-22.24l74.144-60.544c3.333-2.728,7.624-3.996,11.904-3.52
	c4.283,0.473,8.194,2.654,10.848,6.048l150.016,192c4.528,5.791,4.528,13.921,0,19.712l-150.016,192
	c-2.654,3.394-6.565,5.575-10.848,6.048C91.352,448.1,90.71,448.132,90.069,448.125z M38.325,369.021l49.216,40.352l132.256-169.248
	L87.541,70.877l-49.216,40.32l92.96,119.104c4.528,5.791,4.528,13.921,0,19.712L38.325,369.021z"/>
<g>
</g>
<g>
</g>
<g>
</g>
<g>
</g>
<g>
</g>
<g>
</g>
<g>
</g>
<g>
</g>
<g>
</g>
<g>
</g>
<g>
</g>
<g>
</g>
<g>
</g>
<g>
</g>
<g>
</g>
</svg>
